<svg xmlns="http://www.w3.org/2000/svg" fill="#5e6ec7" viewBox="0 0 24 30" x="0px" y="0px" width="25px" height="25px"><title>cart full, Basic, Essential, </title><g data-name="Layer 97"><path d="M19.23,15.14a3,3,0,0,0,2.77-3V6a1,1,0,0,0-.93-1L6.18,4,6,2.84A1,1,0,0,0,5,2H3A1,1,0,0,0,3,4H4.15L6,15.08c0,1.17,0,3.33,2.08,3.82a2.35,2.35,0,0,0-.08.6,2.5,2.5,0,0,0,5,0A2.73,2.73,0,0,0,13,19h4.1a2.73,2.73,0,0,0-.05.5,2.5,2.5,0,1,0,3.77-2.14l0,0-.06,0A2.54,2.54,0,0,0,19.5,17H9c-.53,0-.85,0-1-1h0Zm-8.68-6a1,1,0,0,1,1.34.44l.47.93,3-2.28a1,1,0,0,1,1.2,1.6l-4,3a1,1,0,0,1-.6.2.91.91,0,0,1-.23,0,1,1,0,0,1-.66-.52l-1-2A1,1,0,0,1,10.55,9.11Zm9,9.89a.5.5,0,1,1-.5.5A.5.5,0,0,1,19.5,19Zm-9,0a.5.5,0,1,1-.5.5A.5.5,0,0,1,10.5,19Z"/></g><text x="0" y="39" fill="#000000" font-size="5px" font-weight="bold" font-family="'Helvetica Neue', Helvetica, Arial-Unicode, Arial, Sans-serif">Created by Caesar Rizky Kurniawan</text><text x="0" y="44" fill="#000000" font-size="5px" font-weight="bold" font-family="'Helvetica Neue', Helvetica, Arial-Unicode, Arial, Sans-serif">from the Noun Project</text></svg>